<mxfile>
    <diagram id="7gEuXf8nhCOQeqkIpUd1" name="diagrams">
        <mxGraphModel dx="1438" dy="1012" grid="1" gridSize="10" guides="1" tooltips="1" connect="1" arrows="1" fold="1" page="1" pageScale="1" pageWidth="827" pageHeight="1169" math="0" shadow="0">
            <root>
                <mxCell id="0"/>
                <mxCell id="1" parent="0"/>
            </root>
        </mxGraphModel>
    </diagram>
    <diagram id="DnNYeCL7-luNwoZcnNVE" name="screens">
        <mxGraphModel dx="863" dy="607" grid="1" gridSize="10" guides="1" tooltips="1" connect="1" arrows="1" fold="1" page="1" pageScale="1" pageWidth="827" pageHeight="1169" math="0" shadow="0">
            <root>
                <mxCell id="1sv56Yf-9baUNrzncbg1-0"/>
                <mxCell id="1sv56Yf-9baUNrzncbg1-1" parent="1sv56Yf-9baUNrzncbg1-0"/>
            </root>
        </mxGraphModel>
    </diagram>
</mxfile>